<svg viewBox="0 0 24 24" fill="none" xmlns="http://www.w3.org/2000/svg">
<g clip-path="url(#clip0_307_59825)">
<path d="M9 13.5H1.5C0.672 13.5 0 12.828 0 12V1.5C0 0.672 0.672 0 1.5 0H9C9.828 0 10.5 0.672 10.5 1.5V12C10.5 12.828 9.828 13.5 9 13.5Z" fill="currentColor"/>
<path d="M9 24H1.5C0.672 24 0 23.328 0 22.5V18C0 17.172 0.672 16.5 1.5 16.5H9C9.828 16.5 10.5 17.172 10.5 18V22.5C10.5 23.328 9.828 24 9 24Z" fill="currentColor"/>
<path d="M22.5 9H15C14.172 9 13.5 8.328 13.5 7.5V1.5C13.5 0.672 14.172 0 15 0H22.5C23.328 0 24 0.672 24 1.5V7.5C24 8.328 23.328 9 22.5 9Z" fill="currentColor"/>
<path d="M22.5 24H15C14.172 24 13.5 23.328 13.5 22.5V13.5C13.5 12.672 14.172 12 15 12H22.5C23.328 12 24 12.672 24 13.5V22.5C24 23.328 23.328 24 22.5 24Z" fill="currentColor"/>
</g>
<defs>
<clipPath id="clip0_307_59825">
<rect width="24" height="24" fill="white"/>
</clipPath>
</defs>
</svg>
