<svg width="162" height="260" viewBox="0 0 162 260" fill="currentColor" xmlns="http://www.w3.org/2000/svg">
<path d="M0.0727962 131.219C0.085783 131.743 0.197474 132.242 0.40786 132.723C0.475391 132.884 0.527335 133.039 0.62084 133.187C0.945511 133.73 1.35849 134.226 1.9403 134.58C1.9481 134.585 1.96368 134.585 1.97147 134.59C1.98186 134.595 1.98446 134.608 1.99485 134.613L79.2819 179.898C79.3417 179.935 79.4118 179.917 79.4767 179.953C80.0325 180.239 80.6455 180.452 81.3234 180.452C82.0014 180.452 82.6143 180.239 83.1754 179.943C83.2455 179.914 83.326 179.924 83.3935 179.888L159.307 134.595C159.901 134.242 160.317 133.736 160.655 133.182C160.746 133.029 160.803 132.886 160.868 132.723C161.081 132.239 161.192 131.743 161.21 131.219C161.21 131.107 161.283 131.016 161.275 130.91C161.275 130.86 161.236 130.826 161.226 130.777C161.179 130.182 161.031 129.601 160.707 129.055L84.7909 1.9688C84.7623 1.91685 84.713 1.89607 84.6792 1.84672C84.5883 1.70127 84.4766 1.58699 84.3649 1.45712C84.2247 1.29349 84.0818 1.14803 83.9182 1.00258C83.7935 0.901284 83.6818 0.789598 83.5494 0.706482C83.4974 0.670119 83.4715 0.618172 83.4195 0.587004C83.3312 0.532459 83.2351 0.532459 83.1468 0.488304C82.9702 0.394799 82.7935 0.327267 82.5987 0.259736C82.4377 0.202594 82.2767 0.145452 82.1026 0.111687C81.9312 0.0727261 81.765 0.064934 81.5936 0.0571419C81.5001 0.0467525 81.4169 0 81.3234 0C81.2299 0 81.1572 0.0467525 81.0637 0.0519472C80.8975 0.0675314 80.7416 0.0701287 80.5806 0.103894C80.3962 0.13766 80.2274 0.197399 80.0455 0.257139C79.8559 0.322073 79.6793 0.392202 79.5027 0.485707C79.4222 0.529862 79.3313 0.529862 79.2507 0.574017C79.204 0.602588 79.1754 0.651938 79.1313 0.680509C78.9884 0.774014 78.8663 0.888297 78.7313 1.00518C78.5702 1.14544 78.4248 1.2831 78.2845 1.44673C78.1832 1.5714 78.0715 1.68309 77.9884 1.81556C77.9495 1.8675 77.9001 1.89348 77.8663 1.94542L0.581882 129.034C0.246822 129.58 0.0987741 130.175 0.0468269 130.78C0.0416322 130.832 0.0052651 130.865 7.03769e-05 130.92C-0.00252698 131.019 0.0676014 131.112 0.0727962 131.219ZM85.3649 18.6776L147.096 122.029L85.3649 93.7128V18.6776ZM77.2845 93.6894L14.27 122.081L77.2845 18.4594V93.6894ZM77.2845 102.557V169.356L12.831 131.595L77.2845 102.557ZM85.3649 169.291V102.598L148.564 131.595L85.3649 169.291Z" fill="currentColor"/>
<path d="M160.93 145.026C159.649 143.624 157.54 143.346 155.904 144.283L81.3232 188.316L6.77119 144.283C5.14264 143.335 3.03359 143.624 1.7375 145.026C0.446616 146.439 0.311552 148.543 1.41543 150.104L78.0246 258.037C78.0843 258.121 78.183 258.147 78.2428 258.222C78.4012 258.414 78.5597 258.583 78.7441 258.741C78.8324 258.814 78.8843 258.926 78.9804 258.991C79.0557 259.045 79.1519 259.022 79.2324 259.074C79.3622 259.149 79.4739 259.258 79.6168 259.328C80.1311 259.578 80.6999 259.736 81.3077 259.736C81.3103 259.736 81.3103 259.736 81.3155 259.736C81.3155 259.736 81.3155 259.736 81.3206 259.736C81.3258 259.736 81.3258 259.736 81.3258 259.736C81.3284 259.736 81.3284 259.736 81.3336 259.736C81.9414 259.736 82.5076 259.575 83.0245 259.328C83.1674 259.261 83.2791 259.152 83.4089 259.074C83.4868 259.019 83.5829 259.045 83.6609 258.991C83.757 258.928 83.8089 258.817 83.8972 258.741C84.0816 258.58 84.2427 258.414 84.3959 258.222C84.4557 258.147 84.557 258.121 84.6141 258.037L161.252 150.104C162.361 148.543 162.223 146.439 160.93 145.026ZM77.2843 195.327V243.019L18.984 160.886L77.2843 195.327ZM85.3647 243.019V195.327L143.688 160.886L85.3647 243.019Z" fill="currentColor"/>
</svg>
