<svg viewBox="0 0 25 24" fill="none" xmlns="http://www.w3.org/2000/svg">
<g clip-path="url(#clip0_201_83985)">
<path d="M23.962 10.5917C23.9193 10.1884 23.8482 9.72562 23.706 9.20992C23.5638 8.70083 23.3505 8.13884 23.0377 7.55702C22.7248 6.97521 22.3196 6.37355 21.7934 5.78512C21.5872 5.55372 21.3597 5.32893 21.118 5.11074C21.4806 3.76859 20.6771 2.60496 20.6771 2.60496C19.2907 2.52562 18.409 3.00826 18.082 3.22645C18.0251 3.20661 17.9753 3.18017 17.9184 3.16033C17.6838 3.07438 17.4421 2.98843 17.1861 2.9157C16.9373 2.84298 16.6813 2.77686 16.4182 2.71736C16.1552 2.65785 15.8921 2.61157 15.6219 2.5719C15.5721 2.56529 15.5295 2.55868 15.4797 2.55207C14.8753 0.753719 13.1405 0 13.1405 0C11.1995 1.1438 10.8368 2.7438 10.8368 2.7438C10.8368 2.7438 10.8297 2.77686 10.8155 2.83636C10.7089 2.86281 10.6022 2.89587 10.4956 2.92231C10.3463 2.96198 10.1969 3.01488 10.0547 3.06777C9.90543 3.12066 9.76323 3.17355 9.61392 3.23306C9.32241 3.35207 9.0309 3.4843 8.74649 3.62975C8.4692 3.77521 8.19902 3.93388 7.93595 4.09917C7.9004 4.08595 7.86485 4.07273 7.86485 4.07273C5.17726 3.12066 2.79539 4.26446 2.79539 4.26446C2.57498 6.92231 3.86901 8.59504 4.12497 8.89917C4.06098 9.06446 4.0041 9.22975 3.94722 9.39504C3.74814 9.99669 3.59883 10.6116 3.5064 11.2529C3.49218 11.3455 3.47796 11.438 3.47085 11.5306C0.982334 12.6744 0.25 15.0083 0.25 15.0083C2.31902 17.2231 4.73643 17.362 4.73643 17.362L4.74354 17.3554C5.04927 17.8645 5.40478 18.3471 5.80294 18.8033C5.97358 18.995 6.14422 19.1736 6.32908 19.3521C5.57542 21.362 6.43573 23.0281 6.43573 23.0281C8.73938 23.1074 10.2538 22.0893 10.5738 21.8579C10.8013 21.9306 11.0359 21.9967 11.2706 22.0496C11.9816 22.2215 12.7068 22.3207 13.432 22.3471C13.6098 22.3537 13.7946 22.3603 13.9724 22.3537H14.0577H14.1146H14.2283L14.3421 22.3471V22.3537C15.4299 23.795 17.3354 24 17.3354 24C18.6934 22.6711 18.7716 21.3488 18.7716 21.0645C18.7716 21.0645 18.7716 21.0579 18.7716 21.0446C18.7716 21.0182 18.7716 21.005 18.7716 21.005C18.7716 20.9851 18.7716 20.9653 18.7716 20.9455C19.056 20.7603 19.3262 20.562 19.5822 20.3438C20.1226 19.8876 20.5989 19.3653 20.9971 18.8033C21.0326 18.7504 21.0682 18.6975 21.1037 18.6446C22.6395 18.724 23.7273 17.7587 23.7273 17.7587C23.4714 16.2711 22.5613 15.5438 22.3693 15.405C22.3693 15.405 22.3622 15.3983 22.348 15.3917C22.3338 15.3851 22.3338 15.3785 22.3338 15.3785C22.3267 15.3719 22.3124 15.3653 22.2982 15.3587C22.3053 15.2661 22.3124 15.1802 22.3196 15.0876C22.3338 14.9289 22.3338 14.7636 22.3338 14.605V14.486V14.4264V14.3934C22.3338 14.3537 22.3338 14.3669 22.3338 14.3537L22.3267 14.2545L22.3196 14.1223C22.3196 14.076 22.3124 14.0364 22.3053 13.9967C22.2982 13.957 22.2982 13.9107 22.2911 13.8711L22.2769 13.7455L22.2556 13.6198C22.2271 13.4545 22.1987 13.2959 22.156 13.1306C21.9925 12.4893 21.7223 11.881 21.3739 11.3322C21.0184 10.7835 20.5776 10.3008 20.0728 9.89091C19.5751 9.48099 19.0134 9.15041 18.4304 8.90579C17.8402 8.66116 17.2288 8.50248 16.6173 8.42975C16.3116 8.39008 16.0058 8.37686 15.7001 8.38347H15.5863H15.5579C15.5508 8.38347 15.5152 8.38347 15.5224 8.38347H15.4726L15.3588 8.39008C15.3162 8.39008 15.2735 8.39669 15.238 8.39669C15.0815 8.40992 14.9251 8.42975 14.7758 8.4562C14.1643 8.56198 13.5884 8.76694 13.0836 9.05124C12.5788 9.33554 12.138 9.68595 11.7825 10.0826C11.427 10.4793 11.1497 10.9223 10.9577 11.3785C10.7657 11.8347 10.6591 12.3107 10.6307 12.7669C10.6235 12.8793 10.6235 12.9983 10.6235 13.1107C10.6235 13.1372 10.6235 13.1702 10.6235 13.1967L10.6307 13.2893C10.6378 13.3421 10.6378 13.4017 10.6449 13.4545C10.6662 13.686 10.716 13.9107 10.78 14.1223C10.9151 14.5521 11.1284 14.9421 11.3914 15.2727C11.6545 15.6033 11.9745 15.8744 12.3086 16.0926C12.6428 16.3041 13.0054 16.4562 13.3609 16.5554C13.7164 16.6545 14.0719 16.6942 14.4061 16.6942C14.4487 16.6942 14.4914 16.6942 14.527 16.6942C14.5483 16.6942 14.5696 16.6942 14.5909 16.6942C14.6123 16.6942 14.6336 16.6942 14.6549 16.6876C14.6905 16.6876 14.726 16.681 14.7616 16.681C14.7687 16.681 14.7829 16.681 14.79 16.6744L14.8256 16.6678C14.8469 16.6678 14.8682 16.6612 14.8896 16.6612C14.9322 16.6545 14.9678 16.6479 15.0104 16.6413C15.0531 16.6347 15.0886 16.6281 15.1242 16.6149C15.2024 16.6017 15.2735 16.5752 15.3446 16.5554C15.4868 16.5091 15.629 16.4562 15.7499 16.3967C15.8779 16.3372 15.9916 16.2645 16.1054 16.1983C16.1338 16.1785 16.1694 16.1587 16.1978 16.1322C16.3116 16.0463 16.3329 15.8876 16.2405 15.7818C16.1623 15.6893 16.0201 15.6628 15.9063 15.7223C15.8779 15.7355 15.8494 15.7488 15.821 15.762C15.7214 15.8083 15.6219 15.8479 15.5152 15.881C15.4086 15.9141 15.2948 15.9405 15.1811 15.9603C15.1242 15.9669 15.0673 15.9736 15.0033 15.9802C14.9749 15.9802 14.9464 15.9868 14.9109 15.9868C14.8825 15.9868 14.8469 15.9868 14.8256 15.9868C14.7971 15.9868 14.7687 15.9868 14.7403 15.9868C14.7047 15.9868 14.6692 15.9868 14.6336 15.9802C14.6336 15.9802 14.6123 15.9802 14.6265 15.9802H14.6123H14.5909C14.5767 15.9802 14.5554 15.9802 14.5412 15.9736C14.5056 15.9669 14.4772 15.9669 14.4416 15.9603C14.1786 15.9273 13.9155 15.8545 13.6666 15.7488C13.4107 15.643 13.1689 15.4975 12.9485 15.3124C12.7281 15.1273 12.5361 14.9091 12.3868 14.6579C12.2375 14.4066 12.1309 14.1289 12.0811 13.838C12.0598 13.6926 12.0456 13.5405 12.0527 13.395C12.0527 13.3554 12.0598 13.3157 12.0598 13.276C12.0598 13.2893 12.0598 13.2694 12.0598 13.2694V13.2562V13.2231C12.0598 13.2033 12.0669 13.1835 12.0669 13.1636C12.074 13.0843 12.0882 13.005 12.1024 12.9256C12.2233 12.2909 12.5646 11.6694 13.0907 11.2C13.2258 11.081 13.368 10.9752 13.5173 10.876C13.6666 10.7769 13.8302 10.6909 14.0008 10.6182C14.1715 10.5455 14.3421 10.486 14.527 10.4397C14.7047 10.3934 14.8896 10.3669 15.0815 10.3471C15.174 10.3405 15.2664 10.3339 15.3659 10.3339C15.3944 10.3339 15.4086 10.3339 15.4299 10.3339H15.5081H15.5579C15.5792 10.3339 15.5579 10.3339 15.565 10.3339H15.5863L15.6646 10.3405C15.8708 10.3537 16.0698 10.3802 16.2689 10.4264C16.6671 10.5058 17.0581 10.6446 17.4207 10.8298C18.146 11.2066 18.7645 11.7884 19.1414 12.4893C19.3333 12.8397 19.4684 13.2165 19.5324 13.6066C19.5466 13.7058 19.5609 13.805 19.568 13.9041L19.5751 13.9769L19.5822 14.0496C19.5822 14.076 19.5822 14.1025 19.5822 14.1223C19.5822 14.1488 19.5822 14.1752 19.5822 14.195V14.2612V14.3339C19.5822 14.3802 19.5751 14.4595 19.5751 14.5058C19.568 14.6116 19.5537 14.724 19.5395 14.8298C19.5253 14.9355 19.504 15.0413 19.4826 15.1471C19.4613 15.2529 19.4329 15.3587 19.4044 15.4579C19.3476 15.6628 19.2765 15.8678 19.1911 16.0727C19.0205 16.4694 18.793 16.8529 18.5228 17.2033C17.9753 17.9041 17.2288 18.4727 16.3756 18.8364C15.949 19.0149 15.501 19.1471 15.0389 19.2132C14.8114 19.2529 14.5767 19.2727 14.3421 19.2793H14.2994H14.2639H14.1857H14.0719H14.015C14.0435 19.2793 14.0079 19.2793 14.0079 19.2793H13.9866C13.8586 19.2793 13.7377 19.2727 13.6098 19.2595C13.1121 19.2264 12.6215 19.1405 12.138 19.0149C11.6616 18.8893 11.1995 18.7107 10.7586 18.4992C9.8841 18.0628 9.09489 17.4678 8.48342 16.7471C8.17769 16.3901 7.90751 16 7.6871 15.5967C7.46669 15.1934 7.28894 14.7636 7.16096 14.3339C7.03298 13.8975 6.95476 13.4545 6.91921 13.005L6.9121 12.919V12.8992V12.8793V12.8397V12.7669V12.7471V12.7207V12.6678V12.562V12.5421C6.9121 12.5421 6.9121 12.5488 6.9121 12.5355V12.4959C6.9121 12.443 6.9121 12.3835 6.9121 12.3306C6.91921 12.1124 6.94054 11.881 6.96898 11.6562C6.99743 11.4314 7.04008 11.2 7.08986 10.9752C7.13963 10.7504 7.19651 10.5256 7.26761 10.3008C7.4027 9.85785 7.57334 9.4281 7.77242 9.02479C8.17769 8.21818 8.70383 7.49752 9.33663 6.92231C9.49305 6.77686 9.65658 6.64463 9.82722 6.5124C9.99786 6.38678 10.1756 6.26777 10.3605 6.15537C10.5382 6.04298 10.7302 5.9438 10.9222 5.85124C11.0146 5.80496 11.1141 5.75868 11.2137 5.71901C11.2634 5.69917 11.3132 5.67934 11.363 5.6595C11.4128 5.63967 11.4625 5.61983 11.5123 5.6C11.7114 5.52066 11.9176 5.45455 12.1309 5.39504C12.1806 5.38182 12.2375 5.3686 12.2873 5.34876C12.3371 5.33554 12.3939 5.32231 12.4437 5.30909C12.5504 5.28264 12.657 5.2562 12.7637 5.23636C12.8134 5.22314 12.8703 5.21653 12.9272 5.20331C12.9841 5.19008 13.0338 5.18347 13.0907 5.17025C13.1476 5.16364 13.1974 5.15041 13.2543 5.1438L13.3325 5.13058L13.4178 5.11736C13.4747 5.11074 13.5244 5.10413 13.5813 5.09752C13.6453 5.09091 13.7022 5.0843 13.7662 5.07769C13.8159 5.07107 13.9013 5.06446 13.951 5.05785C13.9866 5.05124 14.0293 5.05124 14.0648 5.04463L14.143 5.03802L14.1786 5.03141H14.2212C14.2852 5.02479 14.3421 5.02479 14.4061 5.01818L14.4985 5.01157C14.4985 5.01157 14.5341 5.01157 14.5056 5.01157H14.527H14.5696C14.6194 5.01157 14.6763 5.00496 14.726 5.00496C14.9322 4.99835 15.1455 4.99835 15.3517 5.00496C15.7641 5.01818 16.1694 5.06446 16.5604 5.13058C17.3496 5.26942 18.0891 5.50083 18.7645 5.81157C19.44 6.1157 20.0372 6.49256 20.5634 6.90248C20.5989 6.92893 20.6274 6.95537 20.6629 6.98182C20.6914 7.00827 20.7269 7.03471 20.7553 7.06116C20.8193 7.11405 20.8762 7.16694 20.9402 7.21983C21.0042 7.27273 21.0611 7.32562 21.118 7.37851C21.1748 7.43141 21.2317 7.4843 21.2886 7.5438C21.509 7.76198 21.7152 7.98017 21.9001 8.20496C22.2698 8.64793 22.5684 9.09752 22.803 9.52066C22.8173 9.54711 22.8315 9.57355 22.8457 9.6C22.8599 9.62645 22.8741 9.65289 22.8884 9.67934C22.9168 9.73223 22.9452 9.78512 22.9666 9.83802C22.995 9.89091 23.0163 9.93719 23.0448 9.99008C23.0661 10.043 23.0945 10.0893 23.1159 10.1421C23.2012 10.3405 23.2865 10.5322 23.3505 10.7107C23.4572 11.0017 23.5354 11.2595 23.5994 11.4843C23.6207 11.5769 23.7131 11.6364 23.8127 11.6231C23.9193 11.6165 23.9975 11.5372 23.9975 11.438C24.0046 11.2 23.9975 10.9157 23.962 10.5917Z" fill="currentColor"/>
</g>
<defs>
<clipPath id="clip0_201_83985">
<rect width="24" height="24" fill="white" transform="translate(0.25)"/>
</clipPath>
</defs>
</svg>
