<svg width="321" height="218" viewBox="0 0 321 218" fill="none" xmlns="http://www.w3.org/2000/svg">
<path d="M290.554 185.834H290.863L291.001 185.557C293.557 180.435 298.657 176.794 304.837 176.794C313.561 176.794 320.505 183.707 320.876 193.254C320.871 202.014 313.954 208.941 305.213 208.941C299.402 208.941 293.93 205.293 291.377 200.177L291.239 199.901H290.93H218.009C215.921 199.901 214.162 198.85 213.101 197.787L202.2 186.864L201.492 186.154L201.351 187.147L180.68 333.28C179.977 336.766 176.483 339.231 172.983 338.896C169.837 338.183 167.743 335.736 167.388 332.565C167.388 332.562 167.387 332.559 167.387 332.555L148.219 70.7908L147.226 70.751L128.432 192.414L128.426 192.452V192.491V192.811C127.711 195.902 124.604 197.982 121.486 197.646C119.817 197.303 118.423 195.948 117.317 194.476L110.943 183.204L110.502 182.423L110.07 183.21L101.835 198.214L101.509 198.541L101.452 198.598L101.416 198.671C100.779 199.946 99.1271 200.65 97.7405 200.654L10.195 196.267L93.9935 192.237L94.2974 192.222L94.4241 191.945L104.949 168.969L104.956 168.953L104.962 168.936C105.966 166.253 108.991 165.175 111.782 166.195C112.838 166.908 113.549 167.619 114.289 168.36L114.623 168.696L117.6 173.542L118.318 174.713L118.52 173.354L143.326 6.50314C144.04 2.96131 147.568 0.195662 150.999 0.879848C154.159 1.58569 156.263 4.03657 156.619 7.21637C156.619 7.2195 156.62 7.22262 156.62 7.22575L175.412 264.47L176.406 264.503L189.56 170.728C190.265 167.232 193.777 164.763 197.286 165.115L197.311 165.117H197.336C198.677 165.117 200.059 165.794 201.117 166.854L219.911 185.687L220.057 185.834H220.265H290.554Z" stroke="#E1E1E1"/>
</svg>
