<svg width="610" height="620" viewBox="0 0 610 620" fill="none" xmlns="http://www.w3.org/2000/svg">
<path d="M449.483 337.206H449.179L449.15 337.508C447.721 352.253 444.454 363.011 439.356 372.781C434.254 382.559 427.312 391.358 418.507 402.189L418.318 402.422L418.528 402.635L484.046 469.233L462.394 491.241L396.883 424.652L396.67 424.435L396.434 424.626C374.361 442.484 349.233 453.093 321.027 456.404L320.732 456.438V456.736V550.715H290.684V456.736V456.438L290.388 456.404C261.782 453.075 236.639 442.483 214.985 424.628L214.748 424.433L214.533 424.652L148.986 491.26L127.333 469.251L192.852 402.654L193.065 402.438L192.87 402.205C183.882 391.413 176.938 379.576 172.037 366.69L171.724 366.809L172.037 366.69C167.133 353.813 163.657 340.088 161.611 325.532L161.571 325.244H161.28H68.8286V294.691H161.28H161.571L161.611 294.402C163.657 279.847 167.132 266.344 172.036 253.874L172.037 253.871C176.938 241.003 183.883 228.942 192.874 217.725L193.061 217.493L192.852 217.281L127.333 150.683L148.986 128.674L214.497 195.264L214.714 195.485L214.951 195.285C236.203 177.434 261.325 167.045 290.346 164.14L290.648 164.109V163.806V69.2012H320.695V163.806V164.104L320.991 164.139C349.599 167.468 374.744 177.858 396.398 195.29L396.634 195.48L396.847 195.264L462.358 128.674L484.01 150.683L418.491 217.281L418.283 217.492L418.468 217.724C427.275 228.759 434.217 237.665 439.32 247.446C444.418 257.219 447.685 267.876 449.114 282.408L449.144 282.71H449.447H608.672H609.037L609.005 282.346C595.301 124.333 464.75 0.390761 305.69 0.390761C137.481 0.390761 1.12172 139.002 1.12172 309.967C1.12172 480.932 137.481 619.544 305.69 619.544C464.75 619.544 595.301 495.601 609.042 337.569L609.073 337.206H608.708H449.483Z" stroke="#C8C8C8" stroke-width="0.669651"/>
<path d="M369.564 375.522L369.564 375.522C387.468 357.305 396.442 335.453 396.424 309.966C396.442 284.48 387.468 262.61 369.564 244.411C352.094 226.653 330.811 217.77 305.736 217.77C280.206 217.326 258.468 226.209 240.561 244.411L240.561 244.411C222.657 262.628 213.701 284.48 213.701 309.966C213.683 335.453 222.657 357.323 240.561 375.522L240.561 375.522C258.484 393.721 279.984 402.827 305.062 402.827C330.141 402.845 351.66 393.721 369.564 375.522Z" stroke="#C8C8C8" stroke-width="0.669651"/>
</svg>
