<svg viewBox="0 0 44 44" fill="none" xmlns="http://www.w3.org/2000/svg">
<path d="M31.9874 23.8725C31.7892 25.8801 31.0806 26.8063 29.8629 28.277L34.4104 32.8154L32.8803 34.3424L28.3328 29.804C26.8027 31.0193 25.0607 31.7415 23.1055 31.9668V38.3714H20.981V31.9668C18.9982 31.7403 17.2549 31.0193 15.7537 29.804L11.2037 34.3437L9.67365 32.8167L14.2212 28.2782C13.5979 27.5435 13.1163 26.7375 12.7764 25.8601C12.4365 24.9839 12.1957 24.0502 12.054 23.0601H5.63657V20.9399H12.054C12.1957 19.9498 12.4365 19.0311 12.7764 18.1825C13.1163 17.3064 13.5979 16.4853 14.2212 15.7218L9.67365 11.1833L11.2037 9.65634L15.7512 14.1948C17.2248 12.9794 18.9669 12.2723 20.9785 12.0745V5.62731H23.103V12.0745C25.0858 12.3011 26.8291 13.0082 28.3303 14.1948L32.8778 9.65634L34.4079 11.1833L29.8603 15.7218C31.0781 17.22 31.7867 18.1475 31.9849 20.1263H42.9975C42.0506 9.40726 33.0308 1 22.042 1C10.4211 1 1 10.4023 1 22C1 33.5977 10.4211 43 22.042 43C33.0308 43 42.0506 34.5927 43 23.8725H31.9874Z" fill="currentColor"/>
<path d="M26.4432 26.4358C25.2091 27.6674 23.7267 28.2845 21.9985 28.2832C20.2703 28.2832 18.7892 27.6674 17.5538 26.4358C16.3198 25.2042 15.7015 23.7247 15.7027 22C15.7027 20.2752 16.3198 18.797 17.5538 17.5642C18.7879 16.3326 20.2854 15.7318 22.0449 15.7618C23.7731 15.7618 25.2392 16.3626 26.4432 17.5642C27.6773 18.7958 28.2956 20.2752 28.2943 22C28.2956 23.7247 27.6773 25.2029 26.4432 26.4358Z" fill="currentColor"/>
</svg>
