<svg width="289" height="42" viewBox="0 0 289 42" fill="none" xmlns="http://www.w3.org/2000/svg">
<path d="M9 11.1374C11.8298 11.0716 14.6596 11.0059 17.4894 10.936C17.4894 15.9281 17.4894 20.916 17.4894 25.9081C22.0089 25.9615 26.5324 26.0108 31.0518 26.0642C31.0518 27.835 31.0518 29.6018 31.0518 31.3726C23.7026 31.2001 16.3492 31.0275 9 30.8549C9 24.281 9 17.7113 9 11.1374Z" fill="currentColor"/>
<path d="M35.0132 31.467C35.0132 24.4864 35.0132 17.5057 35.0132 10.5251C37.843 10.4593 40.6728 10.3936 43.5027 10.3237C43.5027 17.4359 43.5027 24.5521 43.5027 31.6642C40.6728 31.5985 37.843 31.5328 35.0132 31.467Z" fill="currentColor"/>
<path d="M69.7094 10.299C71.7337 10.9112 73.3407 11.8521 74.5304 13.1258C75.7202 14.3995 76.3151 15.9731 76.3151 17.8385C73.6133 17.8549 70.9116 17.8754 68.2098 17.8919C68.2098 16.9551 67.7224 16.1991 66.7516 15.6362C65.7766 15.0692 64.5992 14.798 63.2153 14.8186C61.2159 14.8432 59.708 15.3116 58.6835 16.2073C57.659 17.1071 57.1467 18.3603 57.1467 19.9791C57.1467 20.6611 57.1467 21.3432 57.1467 22.0252C57.1467 23.644 57.659 24.8972 58.6835 25.797C59.708 26.6927 61.22 27.1611 63.2153 27.1857C64.5992 27.2021 65.7766 26.9433 66.7516 26.401C67.7265 25.8586 68.2098 25.1478 68.2098 24.2768C66.2104 24.2644 64.2151 24.248 62.2156 24.2357C62.2156 22.7278 62.2156 21.2199 62.2156 19.712C66.9168 19.6997 71.6139 19.6874 76.3151 19.675C76.3151 23.9316 76.3151 28.1923 76.3151 32.4489C74.8568 32.4161 73.3944 32.3791 71.9361 32.3462C71.6552 31.5943 71.3743 30.8383 71.0892 30.0905C68.6808 31.7998 65.5329 32.5886 61.6372 32.4941C57.2583 32.3873 53.9658 31.3519 51.7639 29.4249C49.562 27.498 48.459 24.7082 48.459 21.0062C48.459 17.3495 49.7066 14.5679 52.2059 12.6122C54.7011 10.6606 58.258 9.60465 62.8683 9.48961C65.4048 9.41976 67.6852 9.68683 69.7094 10.299Z" fill="currentColor"/>
<path d="M99.4032 32.9832C99.4032 29.9509 99.4032 26.9187 99.4032 23.8906C96.2925 23.8742 93.1776 23.8537 90.0669 23.8372C90.0669 26.8119 90.0669 29.7907 90.0669 32.7654C87.2371 32.6997 84.4073 32.6339 81.5775 32.5641C81.5775 24.8521 81.5775 17.1401 81.5775 9.43218C84.4073 9.36644 87.2371 9.3007 90.0669 9.23085C90.0669 12.0946 90.0669 14.9543 90.0669 17.818C93.1776 17.7975 96.2925 17.7769 99.4032 17.7605C99.4032 14.8433 99.4032 11.9303 99.4032 9.01309C102.233 8.94735 105.063 8.88162 107.893 8.81177C107.893 16.9346 107.893 25.0616 107.893 33.1845C105.063 33.1146 102.233 33.0489 99.4032 32.9832Z" fill="currentColor"/>
<path d="M128.79 14.8022C128.79 21.0926 128.79 27.383 128.79 33.6734C125.96 33.6077 123.13 33.5419 120.301 33.4721C120.301 27.2803 120.301 21.0885 120.301 14.9008C117.405 14.9337 114.513 14.9666 111.617 14.9994C111.617 12.9081 111.617 10.8127 111.617 8.72137C120.222 8.52004 128.827 8.31461 137.436 8.11328C137.436 10.3114 137.436 12.5055 137.436 14.7036C134.553 14.7365 131.674 14.7693 128.79 14.8022Z" fill="currentColor"/>
<path d="M159.137 34.3882C159.137 31.0026 159.137 27.613 159.137 24.2274C156.026 24.211 152.911 24.1904 149.801 24.174C149.801 27.5061 149.801 30.8383 149.801 34.1704C146.971 34.1047 144.141 34.0389 141.311 33.9691C141.311 25.3203 141.311 16.6715 141.311 8.02275C144.141 7.95702 146.971 7.89128 149.801 7.82143C149.801 11.0262 149.801 14.2269 149.801 17.4316C152.911 17.4111 156.026 17.3906 159.137 17.3741C159.137 14.1159 159.137 10.8577 159.137 7.60367C161.967 7.53793 164.796 7.47219 167.626 7.40234C167.626 16.4661 167.626 25.5257 167.626 34.5854C164.796 34.5197 161.967 34.4539 159.137 34.3882Z" fill="currentColor"/>
<path d="M197.025 9.99081C199.508 12.4642 200.751 16.1456 200.751 20.9939C200.751 25.8421 199.508 29.5276 197.025 31.9969C194.542 34.4745 191.018 35.629 186.462 35.5181C181.901 35.4071 178.385 34.0965 175.915 31.6354C173.444 29.1701 172.209 25.6367 172.209 20.9939C172.209 16.3511 173.444 12.8176 175.915 10.3524C178.385 7.89127 181.901 6.5806 186.462 6.46967C191.018 6.35873 194.538 7.51738 197.025 9.99081ZM182.31 14.9993C181.364 16.1703 180.889 17.7357 180.889 19.7037C180.889 20.5666 180.889 21.4294 180.889 22.2922C180.889 24.2603 181.364 25.8257 182.31 26.9967C183.256 28.1676 184.64 28.7675 186.457 28.7921C188.275 28.8168 189.663 28.2498 190.626 27.0788C191.588 25.912 192.067 24.3219 192.067 22.3169C192.067 21.4376 192.067 20.5583 192.067 19.6832C192.067 17.6782 191.588 16.0881 190.626 14.9212C189.663 13.7544 188.275 13.1833 186.457 13.2079C184.64 13.2243 183.256 13.8283 182.31 14.9993Z" fill="currentColor"/>
<path d="M228.221 33.3079C225.941 35.4197 222.702 36.4058 218.501 36.3031C214.3 36.2004 211.053 35.0664 208.76 32.934C206.467 30.8016 205.323 27.7735 205.323 23.8168C205.323 18.0482 205.323 12.2837 205.323 6.51514C208.153 6.44941 210.982 6.38367 213.812 6.31382C213.812 12.1194 213.812 17.9209 213.812 23.7223C213.812 25.374 214.209 26.6888 215.002 27.6831C215.795 28.6733 216.948 29.1828 218.46 29.2033C219.972 29.2238 221.128 28.7349 221.938 27.7365C222.744 26.7381 223.148 25.411 223.148 23.7634C223.148 17.8715 223.148 11.9838 223.148 6.09195C225.978 6.02621 228.808 5.96047 231.638 5.89062C231.638 11.9057 231.638 17.9167 231.638 23.9319C231.642 28.0652 230.502 31.2001 228.221 33.3079Z" fill="currentColor"/>
<path d="M256.762 7.19696C258.939 8.7788 260.055 11.1824 260.104 14.3954C260.104 14.5803 260.104 14.761 260.104 14.9459C257.452 14.9706 254.804 14.9952 252.152 15.0158C252.152 14.9542 252.152 14.8966 252.152 14.835C252.152 13.927 251.871 13.1792 251.305 12.5793C250.739 11.9836 249.884 11.696 248.731 11.7124C247.603 11.7288 246.74 11.9343 246.137 12.3328C245.534 12.7314 245.232 13.2121 245.232 13.7791C245.232 14.5844 245.641 15.1801 246.463 15.5622C247.281 15.9443 248.603 16.3388 250.421 16.7496C252.548 17.2468 254.296 17.7768 255.663 18.3315C257.035 18.8862 258.233 19.8065 259.257 21.0884C260.282 22.3703 260.806 24.1165 260.831 26.3188C260.831 30.0536 259.774 32.8064 257.663 34.5608C255.547 36.3152 252.726 37.1369 249.19 37.0507C245.067 36.9479 241.857 36.0646 239.564 34.417C237.271 32.7694 236.127 29.9385 236.127 25.9038C238.804 25.9243 241.481 25.9449 244.158 25.9654C244.158 27.5185 244.505 28.558 245.195 29.088C245.885 29.618 246.963 29.8974 248.421 29.918C249.495 29.9344 250.388 29.8111 251.09 29.5482C251.792 29.2852 252.148 28.7306 252.148 27.8842C252.148 27.1282 251.755 26.5612 250.974 26.175C250.194 25.7929 248.917 25.3861 247.153 24.9547C245.001 24.4041 243.22 23.833 241.812 23.2496C240.403 22.6662 239.172 21.7047 238.122 20.3776C237.073 19.0505 236.549 17.255 236.549 14.9829C236.549 11.6508 237.668 9.18145 239.911 7.55031C242.15 5.91916 244.988 5.04812 248.421 4.96184C251.805 4.87555 254.585 5.61512 256.762 7.19696Z" fill="currentColor"/>
<path d="M265.06 5.10977C272.682 4.92899 280.3 4.75232 287.918 4.57153C287.918 7.19698 287.918 9.82243 287.918 12.4479C283.13 12.5054 278.338 12.567 273.55 12.6246C273.55 14.1037 273.55 15.5869 273.55 17.066C277.648 17.0414 281.746 17.0208 285.844 16.9962C285.844 19.5025 285.844 22.0088 285.844 24.5192C281.746 24.4986 277.648 24.4781 273.55 24.4576C273.55 26.0928 273.55 27.7322 273.55 29.3674C278.429 29.4291 283.308 29.4866 288.186 29.5482C288.186 32.1737 288.186 34.8032 288.186 37.4287C280.478 37.2479 272.769 37.0671 265.056 36.8822C265.06 26.29 265.06 15.702 265.06 5.10977Z" fill="currentColor"/>
</svg>
