<svg width="950" height="968" viewBox="0 0 950 968" fill="none" xmlns="http://www.w3.org/2000/svg">
<path d="M690.636 524.461H690.182L690.139 524.913C688.005 546.932 683.126 562.997 675.513 577.586C667.894 592.188 657.528 605.328 644.378 621.502L644.096 621.849L644.41 622.168L742.25 721.619L709.916 754.485L612.087 655.046L611.769 654.723L611.416 655.008C578.454 681.674 540.932 697.518 498.811 702.461L498.369 702.513V702.958V843.297H453.499V702.958V702.513L453.057 702.461C410.339 697.49 372.792 681.674 340.456 655.011L340.102 654.72L339.781 655.046L241.898 754.513L209.564 721.647L307.405 622.196L307.722 621.873L307.432 621.525C294.009 605.41 283.64 587.733 276.322 568.491L275.854 568.669L276.321 568.491C268.997 549.262 263.807 528.765 260.752 507.029L260.692 506.598H260.257H122.199V460.973H260.257H260.692L260.752 460.542C263.807 438.806 268.997 418.642 276.32 400.021L276.321 400.016C283.64 380.799 294.012 362.789 307.438 346.039L307.716 345.692L307.405 345.375L209.564 245.924L241.898 213.058L339.727 312.497L340.051 312.827L340.405 312.53C372.141 285.872 409.656 270.358 452.995 266.019L453.445 265.974V265.521V124.246H498.315V265.521V265.966L498.757 266.018C541.478 270.989 579.027 286.505 611.363 312.536L611.716 312.82L612.033 312.497L709.862 213.058L742.196 245.924L644.355 345.375L644.045 345.691L644.321 346.038C657.472 362.516 667.839 375.815 675.459 390.422C683.073 405.015 687.951 420.93 690.085 442.631L690.129 443.082H690.582H928.355H928.9L928.853 442.539C908.387 206.575 713.434 21.4902 475.907 21.4902C224.718 21.4902 21.0909 228.481 21.0909 483.785C21.0909 739.09 224.718 946.081 475.907 946.081C713.434 946.081 908.387 760.996 928.907 525.004L928.955 524.461H928.409H690.636Z" stroke="url(#paint0_linear_631_59777)"/>
<path d="M571.289 581.679L571.289 581.679C598.025 554.475 611.427 521.844 611.4 483.784C611.427 445.725 598.025 413.066 571.289 385.889C545.2 359.371 513.419 346.106 475.974 346.105C437.848 345.444 405.387 358.709 378.647 385.889L378.647 385.889C351.91 413.093 338.536 445.725 338.536 483.784C338.509 521.844 351.91 554.503 378.647 581.679L378.647 581.68C405.411 608.857 437.517 622.454 474.967 622.454C512.418 622.482 544.552 608.856 571.289 581.679Z" stroke="url(#paint1_linear_631_59777)"/>
<defs>
<linearGradient id="paint0_linear_631_59777" x1="475" y1="21.9902" x2="335.932" y2="953.843" gradientUnits="userSpaceOnUse">
<stop offset="0.204206" stop-color="#5B24DE"/>
<stop offset="1" stop-color="#CD52AD"/>
</linearGradient>
<linearGradient id="paint1_linear_631_59777" x1="474.968" y1="346.582" x2="433.722" y2="624.484" gradientUnits="userSpaceOnUse">
<stop offset="0.204206" stop-color="#5B24DE"/>
<stop offset="1" stop-color="#CD52AD"/>
</linearGradient>
</defs>
</svg>
