<svg width="100%" height="100%" viewBox="0 0 162 260" fill="none" xmlns="http://www.w3.org/2000/svg">
<path d="M160.928 145.123C159.648 143.721 157.538 143.442 155.901 144.38L81.3046 188.443L6.73664 144.38C5.10844 143.432 2.99861 143.721 1.70288 145.123C0.410266 146.538 0.276654 148.642 1.37973 150.206L78.0047 258.212C78.0637 258.296 78.1632 258.32 78.2222 258.395C78.3807 258.588 78.5392 258.756 78.7225 258.914C78.8095 258.986 78.8623 259.098 78.9586 259.163C79.0332 259.216 79.1295 259.194 79.2103 259.247C79.3408 259.321 79.4527 259.43 79.5956 259.502C80.1114 259.75 80.6801 259.909 81.286 259.909C81.2891 259.909 81.2891 259.909 81.2922 259.909C81.2922 259.909 81.2922 259.909 81.2984 259.909C81.3046 259.909 81.3046 259.909 81.3046 259.909C81.3077 259.909 81.3077 259.909 81.3108 259.909C81.9198 259.909 82.4854 259.747 83.0012 259.502C83.1441 259.433 83.256 259.325 83.3865 259.247C83.4641 259.194 83.5605 259.219 83.6382 259.163C83.7345 259.101 83.7873 258.989 83.8743 258.914C84.0576 258.753 84.2192 258.588 84.3746 258.395C84.4336 258.32 84.5362 258.292 84.5921 258.212L161.248 150.206C162.361 148.642 162.221 146.538 160.928 145.123ZM77.2652 195.459V243.184L18.9513 160.993L77.2652 195.459ZM85.3472 243.184V195.459L143.683 160.996L85.3472 243.184Z" fill="currentColor"/>
<path d="M161.261 130.864C161.214 130.27 161.068 129.689 160.742 129.142L143.608 100.445L139.227 93.1086L120.991 62.5626L117.035 55.9379L85.0613 2.39059L84.8096 1.96781C84.7816 1.91807 84.7319 1.89631 84.6977 1.84657C84.6076 1.70046 84.4958 1.58544 84.3839 1.45798C84.2441 1.29322 84.1011 1.14711 83.9365 1.001C83.8122 0.901523 83.7003 0.789609 83.5698 0.705675C83.517 0.66837 83.489 0.618631 83.4393 0.587544C83.3492 0.531587 83.2529 0.531587 83.1659 0.488066C82.9887 0.394805 82.8116 0.326413 82.619 0.258022C82.4574 0.202065 82.2958 0.143 82.1218 0.111913C81.9509 0.0715001 81.7831 0.062174 81.6122 0.0559566C81.519 0.0466305 81.4351 0 81.3419 0C81.2487 0 81.1772 0.0466305 81.0809 0.0497392C80.9162 0.0652827 80.7608 0.0683914 80.5993 0.102587C80.4159 0.136783 80.245 0.195848 80.0648 0.254913C79.8753 0.320196 79.6982 0.391696 79.521 0.484957C79.4403 0.528479 79.3502 0.528479 79.2694 0.572001C79.2228 0.603087 79.1948 0.649718 79.1482 0.680805C79.0052 0.774066 78.8841 0.889088 78.7505 1.00411C78.5889 1.144 78.4428 1.28389 78.303 1.44554C78.2005 1.56989 78.0886 1.68181 78.0078 1.81548C77.9674 1.86833 77.9177 1.8932 77.8835 1.94605L77.7033 2.24137L45.3163 55.5245L41.3173 62.1056L22.478 93.0993L18.0191 100.436L0.584263 129.12C0.248679 129.667 0.0995307 130.261 0.0467073 130.867C0.0436 130.92 0.00631292 130.954 9.84047e-05 131.007C-0.00300885 131.106 0.0684581 131.2 0.0746726 131.305C0.0871016 131.831 0.198963 132.331 0.410257 132.813C0.475509 132.971 0.528332 133.13 0.62155 133.276C0.947812 133.82 1.36108 134.318 1.94213 134.669C1.94835 134.675 1.96389 134.675 1.97321 134.681C1.98253 134.684 1.98564 134.7 1.99496 134.703L24.7214 148.027L31.3958 151.938L79.3004 180.019C79.3595 180.056 79.4309 180.037 79.4962 180.074C80.0524 180.36 80.6645 180.572 81.3419 180.572C82.0193 180.572 82.6345 180.36 83.1938 180.065C83.2653 180.034 83.3461 180.046 83.4113 180.009L131.015 151.596L137.645 147.638L159.34 134.684C159.937 134.333 160.353 133.826 160.689 133.273C160.782 133.118 160.838 132.975 160.903 132.813C161.115 132.328 161.226 131.831 161.245 131.305C161.245 131.196 161.32 131.103 161.31 130.997C161.31 130.948 161.273 130.913 161.261 130.864ZM129.719 93.1086H115.972C115.183 86.2602 112.682 80.2417 108.465 75.0564L115.077 68.4598L129.719 93.1086ZM85.3844 18.4719L111.134 61.8227L103.17 69.7654C100.619 67.6111 97.8228 65.9479 94.7777 64.7759C91.8351 63.6382 88.6999 62.8237 85.3844 62.3294V18.4719ZM77.3025 18.4719V62.3418C74.0212 62.8392 70.9637 63.6475 68.1361 64.7759C65.094 65.9479 62.2447 67.6111 59.5973 69.7654L51.4035 61.5926L51.2636 61.4559L77.3025 18.4719ZM47.2739 68.0432L47.4324 68.2048L54.2963 75.0471C50.0798 80.136 47.625 86.1514 46.9383 93.0993H32.095L47.2739 68.0432ZM9.80039 129.906L27.6516 100.436H46.9383C47.7245 107.284 50.1792 113.303 54.2963 118.488L30.6377 142.117L9.80039 129.906ZM74.8819 168.05L37.3089 146.028L59.5973 123.773C64.7958 127.979 68.0149 130.425 74.8819 131.109V168.05ZM81.3543 118.37C79.9561 118.37 78.6075 118.249 77.3025 118.019C73.0207 117.257 69.236 115.243 65.961 111.978C61.791 107.819 59.7061 102.755 59.7061 96.7893C59.6035 90.7118 61.6885 85.5389 65.961 81.2769C69.2422 78.0128 73.0207 76.0015 77.3025 75.2398C78.6075 75.0067 79.9561 74.8854 81.3543 74.8854C82.7464 74.8854 84.0856 75.0036 85.3844 75.2336C89.6756 75.9921 93.4664 78.0066 96.7477 81.2769C101.023 85.5452 103.161 90.659 103.161 96.6277C103.164 102.596 101.023 107.716 96.7477 111.978C93.4633 115.249 89.6756 117.263 85.3844 118.022C84.0856 118.252 82.7464 118.37 81.3543 118.37ZM87.8827 167.916V131.119C94.8491 130.435 98.062 127.985 103.167 123.782L125.111 145.698L87.8827 167.916ZM131.742 141.741L108.465 118.497C112.682 113.213 115.189 107.197 115.972 100.445H134.078L151.575 129.906L131.742 141.741Z" fill="currentColor"/>
</svg>
