<svg viewBox="0 0 24 24" fill="none" xmlns="http://www.w3.org/2000/svg">
<g clip-path="url(#clip0_201_83964)">
<path d="M4.84375 1.375H0.96875C0.434 1.375 0 1.809 0 2.34375V21.7188C0 22.2535 0.434 22.6875 0.96875 22.6875H4.84375V1.375Z" fill="currentColor"/>
<path d="M6.78125 1.375V22.6875H22.2812C22.816 22.6875 23.25 22.2535 23.25 21.7188V2.34375C23.25 1.809 22.816 1.375 22.2812 1.375H6.78125ZM10.6562 5.25H13.5625V7.1875H10.6562V5.25ZM13.5625 18.8125H10.6562V16.875H13.5625V18.8125ZM16.4688 14.9375H12.5938V13H16.4688V14.9375ZM19.375 11.0625H13.5625V9.125H19.375V11.0625Z" fill="currentColor"/>
</g>
<defs>
<clipPath id="clip0_201_83964">
<rect width="23.25" height="23.25" fill="white" transform="translate(0 0.375)"/>
</clipPath>
</defs>
</svg>
