<svg width="100%" height="100%" viewBox="0 0 58 58" fill="none" xmlns="http://www.w3.org/2000/svg">
<path d="M29 0C23.2643 0 17.6575 1.70082 12.8885 4.88738C8.11945 8.07394 4.40245 12.6031 2.20751 17.9022C0.0125655 23.2012 -0.561731 29.0322 0.55724 34.6576C1.67621 40.2831 4.43819 45.4504 8.49391 49.5061C12.5496 53.5618 17.7169 56.3238 23.3424 57.4428C28.9678 58.5617 34.7988 57.9874 40.0978 55.7925C45.3969 53.5976 49.9261 49.8806 53.1126 45.1115C56.2992 40.3425 58 34.7357 58 29C57.9913 21.3114 54.9332 13.9402 49.4965 8.50351C44.0598 3.06684 36.6886 0.00869897 29 0V0ZM5.80001 29C5.79631 24.6586 7.01187 20.4033 9.30825 16.7189C11.6046 13.0346 14.8895 10.0691 18.7888 8.1603C22.6881 6.2515 27.0451 5.47609 31.3635 5.92237C35.682 6.36865 39.7883 8.01869 43.2148 10.6846L10.6846 43.2148C7.51558 39.1545 5.79613 34.1506 5.80001 29V29ZM29 52.2C23.851 52.2028 18.849 50.4834 14.79 47.3154L47.3154 14.79C49.9799 18.2166 51.6287 22.3224 52.0742 26.6401C52.5198 30.9578 51.744 35.3138 49.8354 39.2122C47.9268 43.1107 44.9619 46.3949 41.2784 48.6911C37.5948 50.9872 33.3406 52.203 29 52.2V52.2Z" fill="currentColor"/>
</svg>
