<svg viewBox="0 0 24 24" fill="none" xmlns="http://www.w3.org/2000/svg">
<g clip-path="url(#clip0_201_84048)">
<path d="M14.3179 21.6835C14.6644 22.0256 14.608 22.6255 14.1773 22.8555C10.5345 24.815 5.89329 24.2576 2.81746 21.1817C-0.257636 18.1066 -0.815812 13.4697 1.1444 9.82242C1.37367 9.39609 1.9736 9.33969 2.31642 9.68178L7.79197 15.1574L9.07607 13.8733C9.04384 13.751 9.00135 13.6389 9.00135 13.507C9.00136 13.2103 9.08934 12.9203 9.25419 12.6736C9.41904 12.4269 9.65334 12.2346 9.92746 12.121C10.2016 12.0075 10.5032 11.9778 10.7942 12.0357C11.0852 12.0936 11.3525 12.2365 11.5623 12.4463C11.7721 12.6561 11.915 12.9234 11.9729 13.2144C12.0308 13.5054 12.0011 13.807 11.8875 14.0812C11.774 14.3553 11.5817 14.5896 11.335 14.7544C11.0883 14.9193 10.7983 15.0072 10.5015 15.0072C10.3704 15.0072 10.2576 14.9655 10.136 14.9325L8.85119 16.2174L14.3179 21.6835ZM23.9989 14.2059C24.0046 14.3081 23.9894 14.4104 23.9544 14.5066C23.9193 14.6028 23.865 14.6908 23.7949 14.7654C23.7247 14.8399 23.6401 14.8994 23.5462 14.9402C23.4524 14.9811 23.3511 15.0024 23.2488 15.0028H21.7435C21.5532 15.0023 21.3702 14.9293 21.2318 14.7986C21.0934 14.668 21.01 14.4896 20.9985 14.2996C20.6469 8.22845 15.7713 3.30587 9.70457 2.9777C9.514 2.96755 9.33464 2.88443 9.20371 2.74559C9.07278 2.60674 9.00032 2.42283 9.00135 2.23199V0.750821C9.00177 0.648427 9.02303 0.54719 9.06384 0.453277C9.10464 0.359364 9.16414 0.274741 9.2387 0.204562C9.31327 0.134384 9.40134 0.080119 9.49755 0.0450734C9.59376 0.0100278 9.6961 -0.00506502 9.79833 0.000714384C17.4494 0.403604 23.6004 6.55462 23.9989 14.2059ZM19.4983 14.1919C19.5053 14.2955 19.4909 14.3995 19.4562 14.4973C19.4214 14.5952 19.367 14.6849 19.2962 14.7609C19.2254 14.8368 19.1398 14.8975 19.0447 14.9391C18.9496 14.9808 18.8469 15.0024 18.7431 15.0028H17.2334C17.0456 15.0015 16.8652 14.93 16.7273 14.8025C16.5895 14.675 16.5043 14.5006 16.4884 14.3135C16.1646 10.7037 13.2954 7.80212 9.69505 7.50618C9.50668 7.49265 9.33041 7.4083 9.20171 7.27009C9.07302 7.13187 9.00143 6.95005 9.00136 6.7612V5.25586C9.00133 5.15192 9.02273 5.0491 9.06421 4.9538C9.10569 4.85851 9.16637 4.77278 9.24247 4.70198C9.31856 4.63119 9.40842 4.57683 9.50646 4.54231C9.60449 4.50779 9.70859 4.49385 9.81225 4.50136C14.9743 4.89985 19.1042 9.02983 19.4983 14.1919Z" fill="currentColor"/>
</g>
<defs>
<clipPath id="clip0_201_84048">
<rect width="24" height="24" fill="white"/>
</clipPath>
</defs>
</svg>
