<svg width="62" height="13" viewBox="0 0 62 13" fill="none" xmlns="http://www.w3.org/2000/svg">
<path d="M9.36498 0H1.17062C0.52678 0 0 0.52678 0 1.17062V9.36498C0 10.0088 0.52678 10.5356 1.17062 10.5356H3.51187L5.2678 12.2915L7.02373 10.5356H9.36498C10.0088 10.5356 10.5356 10.0088 10.5356 9.36498V1.17062C10.5356 0.52678 10.0088 0 9.36498 0ZM6.36818 6.36818L5.2678 8.77967L4.16742 6.36818L1.75593 5.2678L4.16742 4.16741L5.2678 1.75593L6.36818 4.16741L8.77967 5.2678L6.36818 6.36818V6.36818Z" fill="currentColor"/>
<path d="M23.8604 7.44118C23.8604 7.2023 23.7227 7.01962 23.4473 6.89315C23.1719 6.76386 22.6762 6.62896 21.9602 6.48844C21.2442 6.34511 20.6773 6.20458 20.2597 6.06687C19.1214 5.69027 18.5522 5.18298 18.5522 4.54501C18.5522 4.21337 18.7037 3.91828 19.0066 3.65971C19.3142 3.39834 19.7525 3.19458 20.3216 3.04844C20.8954 2.9023 21.5379 2.82922 22.2494 2.82922C22.9654 2.82922 23.6034 2.90932 24.1633 3.06952C24.7233 3.2269 25.157 3.45033 25.4646 3.73981C25.7767 4.02929 25.9327 4.35811 25.9327 4.72628H23.8673C23.8673 4.44524 23.7227 4.22743 23.4336 4.07285C23.1444 3.91547 22.7382 3.83677 22.2149 3.83677C21.7101 3.83677 21.3176 3.90282 21.0376 4.03491C20.7577 4.16419 20.6177 4.33563 20.6177 4.54922C20.6177 4.74877 20.7806 4.91599 21.1065 5.05089C21.437 5.18579 21.9212 5.31226 22.5592 5.4303C23.7342 5.64671 24.5902 5.91511 25.1272 6.2355C25.6642 6.55589 25.9327 6.95498 25.9327 7.43275C25.9327 7.96393 25.6045 8.38128 24.9482 8.68481C24.2919 8.98553 23.4083 9.13589 22.2976 9.13589C21.5265 9.13589 20.8242 9.05017 20.1908 8.87873C19.5574 8.70448 19.0732 8.467 18.7381 8.16628C18.4077 7.86556 18.2424 7.51707 18.2424 7.12079H20.3147C20.3147 7.79811 20.9757 8.13677 22.2976 8.13677C22.7887 8.13677 23.1719 8.07635 23.4473 7.9555C23.7227 7.83184 23.8604 7.6604 23.8604 7.44118Z" fill="currentColor"/>
<path d="M30.7085 9.05158H28.643V2.91354H30.7085V9.05158Z" fill="currentColor"/>
<path d="M37.5152 6.80462H35.8697V9.05158H33.8043V2.91354H37.529C38.7132 2.91354 39.6265 3.07514 40.2691 3.39834C40.9117 3.72154 41.233 4.17824 41.233 4.76844C41.233 5.1872 41.0838 5.5371 40.7855 5.81815C40.4917 6.09638 40.0442 6.31841 39.4429 6.48422L41.6116 8.99256V9.05158H39.3947L37.5152 6.80462ZM35.8697 5.7802H37.5359C38.0545 5.7802 38.4561 5.70011 38.7407 5.53991C39.0253 5.3769 39.1676 5.15347 39.1676 4.86962C39.1676 4.58014 39.0322 4.35249 38.7614 4.18667C38.4951 4.02086 38.0843 3.93795 37.529 3.93795H35.8697V5.7802Z" fill="currentColor"/>
<path d="M50.0157 6.39148H46.05V8.0356H50.7041V9.05158H43.9846V2.91354H50.6904V3.93795H46.05V5.40079H50.0157V6.39148Z" fill="currentColor"/>
<path d="M61.2424 9.05158H59.177L55.1563 5.01295V9.05158H53.0909V2.91354H55.1563L59.1839 6.9606V2.91354H61.2424V9.05158Z" fill="currentColor"/>
</svg>
