<svg width="40" height="40" viewBox="0 0 40 40" fill="none" xmlns="http://www.w3.org/2000/svg">
<circle cx="20.0001" cy="20" r="20" fill="white"/>
<circle cx="20.0001" cy="20" r="19.5" stroke="#5E41D5" stroke-opacity="0.5"/>
<circle cx="20.0001" cy="20" r="19" fill="#5E41D5" fill-opacity="0.3"/>
<path d="M20.0001 8C13.3761 8 8.00006 13.376 8.00006 20C8.00006 26.624 13.3761 32 20.0001 32C26.6241 32 32.0001 26.624 32.0001 20C32.0001 13.376 26.6241 8 20.0001 8ZM20.0001 29.6C14.7081 29.6 10.4001 25.292 10.4001 20C10.4001 14.708 14.7081 10.4 20.0001 10.4C25.2921 10.4 29.6001 14.708 29.6001 20C29.6001 25.292 25.2921 29.6 20.0001 29.6ZM20.3721 18.968C18.2481 18.428 17.5641 17.84 17.5641 16.964C17.5641 15.956 18.5121 15.248 20.0841 15.248C21.7401 15.248 22.3641 16.04 22.4121 17.216H24.4641C24.4041 15.608 23.4201 14.132 21.4761 13.652V11.6H18.6801V13.628C16.8681 14.012 15.4161 15.188 15.4161 17C15.4161 19.148 17.2041 20.228 19.8081 20.852C22.1481 21.404 22.6161 22.232 22.6161 23.096C22.6161 23.732 22.1481 24.764 20.0961 24.764C18.1761 24.764 17.4201 23.9 17.3121 22.796H15.2481C15.3681 24.836 16.8801 25.988 18.6801 26.36V28.4H21.4881V26.396C23.3121 26.048 24.7521 25.004 24.7641 23.072C24.7521 20.432 22.4841 19.52 20.3721 18.968Z" fill="white"/>
</svg>
