<svg viewBox="0 0 24 24" fill="none" xmlns="http://www.w3.org/2000/svg">
<g clip-path="url(#clip0_201_83957)">
<path d="M12 8.25C12.7417 8.25 13.4667 8.03007 14.0834 7.61801C14.7001 7.20596 15.1807 6.62029 15.4645 5.93507C15.7484 5.24984 15.8226 4.49584 15.6779 3.76841C15.5333 3.04098 15.1761 2.3728 14.6517 1.84835C14.1272 1.3239 13.459 0.966752 12.7316 0.822057C12.0042 0.677362 11.2502 0.751625 10.5649 1.03545C9.87971 1.31928 9.29404 1.79993 8.88199 2.41661C8.46993 3.0333 8.25 3.75832 8.25 4.5C8.25119 5.4942 8.64666 6.44733 9.34966 7.15034C10.0527 7.85334 11.0058 8.24881 12 8.25ZM12 2.25C12.445 2.25 12.88 2.38196 13.25 2.6292C13.62 2.87643 13.9084 3.22783 14.0787 3.63896C14.249 4.0501 14.2936 4.5025 14.2068 4.93896C14.12 5.37541 13.9057 5.77632 13.591 6.09099C13.2763 6.40566 12.8754 6.61995 12.439 6.70677C12.0025 6.79359 11.5501 6.74903 11.139 6.57873C10.7278 6.40843 10.3764 6.12005 10.1292 5.75004C9.88196 5.38002 9.75 4.94501 9.75 4.5C9.75 3.90327 9.98705 3.33097 10.409 2.90901C10.831 2.48705 11.4033 2.25 12 2.25Z" fill="currentColor"/>
<path d="M19.5 15.75C18.5417 15.7517 17.6209 16.1221 16.9282 16.7842L12.75 13.8593V9.75H11.25V13.8593L7.07175 16.7842C6.39775 16.152 5.51307 15.7925 4.58911 15.7752C3.66515 15.758 2.76769 16.0843 2.07058 16.691C1.37348 17.2977 0.926354 18.1415 0.815837 19.059C0.705321 19.9764 0.939278 20.9023 1.47238 21.6571C2.00549 22.412 2.79979 22.9421 3.70141 23.1448C4.60303 23.3474 5.54778 23.2082 6.35264 22.7542C7.1575 22.3001 7.76517 21.5634 8.05792 20.6869C8.35068 19.8104 8.30768 18.8564 7.93725 18.0098L12 15.1658L16.0628 18.0098C15.8567 18.4796 15.7502 18.987 15.75 19.5C15.75 20.2417 15.9699 20.9667 16.382 21.5834C16.794 22.2001 17.3797 22.6807 18.0649 22.9645C18.7502 23.2484 19.5042 23.3226 20.2316 23.1779C20.959 23.0333 21.6272 22.6761 22.1517 22.1517C22.6761 21.6272 23.0333 20.959 23.1779 20.2316C23.3226 19.5042 23.2484 18.7502 22.9645 18.0649C22.6807 17.3797 22.2001 16.794 21.5834 16.382C20.9667 15.9699 20.2417 15.75 19.5 15.75Z" fill="currentColor"/>
</g>
<defs>
<clipPath id="clip0_201_83957">
<rect width="24" height="24" fill="white"/>
</clipPath>
</defs>
</svg>
