<svg viewBox="0 0 25 24" fill="none" xmlns="http://www.w3.org/2000/svg">
<path d="M24.25 14V10L20.912 9.583C20.7187 8.88533 20.4413 8.21374 20.086 7.583L22.15 4.929L19.321 2.1L16.668 4.164C16.0373 3.80865 15.3657 3.53128 14.668 3.338L14.25 0H10.25L9.833 3.338C9.13533 3.53128 8.46374 3.80865 7.833 4.164L5.179 2.1L2.35 4.929L4.414 7.582C4.05865 8.21274 3.78128 8.88433 3.588 9.582L0.25 10V14L3.588 14.417C3.78128 15.1147 4.05865 15.7863 4.414 16.417L2.35 19.071L5.179 21.9L7.832 19.837C8.46274 20.1923 9.13433 20.4697 9.832 20.663L10.25 24H14.25L14.667 20.662C15.3647 20.4687 16.0363 20.1913 16.667 19.836L19.321 21.9L22.15 19.071L20.087 16.418C20.4423 15.7873 20.7197 15.1157 20.913 14.418L24.25 14ZM12.25 16C11.4589 16 10.6855 15.7654 10.0277 15.3259C9.36992 14.8864 8.85723 14.2616 8.55448 13.5307C8.25173 12.7998 8.17252 11.9956 8.32686 11.2196C8.4812 10.4437 8.86216 9.73098 9.42157 9.17157C9.98098 8.61216 10.6937 8.2312 11.4696 8.07686C12.2456 7.92252 13.0498 8.00173 13.7807 8.30448C14.5116 8.60723 15.1364 9.11992 15.5759 9.77772C16.0154 10.4355 16.25 11.2089 16.25 12C16.25 13.0609 15.8286 14.0783 15.0784 14.8284C14.3283 15.5786 13.3109 16 12.25 16Z" fill="currentColor"/>
</svg>
